<svg xmlns="http://www.w3.org/2000/svg" viewBox="0 0 947.13 515.3"><defs><style>.cls-1{opacity:0.47;}.cls-2{fill:none;stroke:#9a428a;stroke-miterlimit:10;stroke-width:16px;}.cls-3{font-size:200px;fill:#9a428a;font-family:ArponaSans-LightItalic, ArponaSans;font-weight:300;font-style:italic;}</style></defs><g id="Layer_10" data-name="Layer 10"><path class="cls-2" d="M436.8,298c-6.57,25.58-34.65,56.18-63.12,70.39,14.53,2.63,23.58,6.32,23.58,10.42,0,8-34.22,14.42-76.43,14.42s-76.43-6.46-76.43-14.42c0-3.49,6.57-6.69,17.5-9.19A128.2,128.2,0,1,1,421.56,180.11"/><path class="cls-2" d="M155.77,332.12a51.53,51.53,0,0,1-51.54-51.53c0-28.46,25.77-47.18,51.54-51.53a549.71,549.71,0,0,1,107.59,0S423,251.8,524,212.28c0,0-62,13.4-84.05,75.53-1.15,3.25-2.26,6.89-3.18,10.42"/><text class="cls-3" transform="translate(458.11 394.47)">enie</text></g></svg>