<svg width="125" height="32" viewBox="0 0 125 32" fill="none" xmlns="http://www.w3.org/2000/svg">
<g clip-path="url(#clip0)">
<path d="M56.1681 13.2325H59.7201V20.0485C58.8081 20.7365 57.7521 21.2645 56.5521 21.6325C55.3521 22.0005 54.1441 22.1845 52.9281 22.1845C51.1841 22.1845 49.6161 21.8165 48.2241 21.0805C46.8321 20.3285 45.7361 19.2965 44.9361 17.9845C44.1521 16.6565 43.7601 15.1605 43.7601 13.4965C43.7601 11.8325 44.1521 10.3445 44.9361 9.03255C45.7361 7.70455 46.8401 6.67254 48.2481 5.93654C49.6561 5.18455 51.2401 4.80855 53.0001 4.80855C54.4721 4.80855 55.8081 5.05654 57.0081 5.55254C58.2081 6.04854 59.2161 6.76854 60.0321 7.71254L57.5361 10.0165C56.3361 8.75255 54.8881 8.12055 53.1921 8.12055C52.1201 8.12055 51.1681 8.34455 50.3361 8.79255C49.5041 9.24055 48.8561 9.87255 48.3921 10.6885C47.9281 11.5045 47.6961 12.4405 47.6961 13.4965C47.6961 14.5365 47.9281 15.4645 48.3921 16.2805C48.8561 17.0965 49.4961 17.7365 50.3121 18.2005C51.1441 18.6485 52.0881 18.8725 53.1441 18.8725C54.2641 18.8725 55.2721 18.6325 56.1681 18.1525V13.2325ZM75.7157 15.4885C75.7157 15.5365 75.6917 15.8725 75.6437 16.4965H65.8757C66.0517 17.2965 66.4677 17.9285 67.1237 18.3925C67.7797 18.8565 68.5957 19.0885 69.5717 19.0885C70.2437 19.0885 70.8357 18.9925 71.3477 18.8005C71.8757 18.5925 72.3637 18.2725 72.8117 17.8405L74.8037 20.0005C73.5877 21.3925 71.8117 22.0885 69.4757 22.0885C68.0197 22.0885 66.7317 21.8085 65.6117 21.2485C64.4917 20.6725 63.6277 19.8805 63.0197 18.8725C62.4117 17.8645 62.1077 16.7205 62.1077 15.4405C62.1077 14.1765 62.4037 13.0405 62.9957 12.0325C63.6037 11.0085 64.4277 10.2165 65.4677 9.65654C66.5237 9.08054 67.6997 8.79255 68.9957 8.79255C70.2597 8.79255 71.4037 9.06455 72.4277 9.60854C73.4517 10.1525 74.2517 10.9365 74.8277 11.9605C75.4197 12.9685 75.7157 14.1445 75.7157 15.4885ZM69.0197 11.6245C68.1717 11.6245 67.4597 11.8645 66.8837 12.3445C66.3077 12.8245 65.9557 13.4805 65.8277 14.3125H72.1877C72.0597 13.4965 71.7077 12.8485 71.1317 12.3685C70.5557 11.8725 69.8517 11.6245 69.0197 11.6245ZM86.0563 8.79255C87.6563 8.79255 88.9443 9.27255 89.9203 10.2325C90.9123 11.1925 91.4083 12.6165 91.4083 14.5045V21.8965H87.6643V15.0805C87.6643 14.0565 87.4403 13.2965 86.9923 12.8005C86.5443 12.2885 85.8963 12.0325 85.0483 12.0325C84.1043 12.0325 83.3523 12.3285 82.7923 12.9205C82.2323 13.4965 81.9523 14.3605 81.9523 15.5125V21.8965H78.2083V8.98454H81.7843V10.4965C82.2803 9.95255 82.8963 9.53655 83.6323 9.24855C84.3683 8.94455 85.1763 8.79255 86.0563 8.79255ZM94.8021 8.98454H98.5461V21.8965H94.8021V8.98454ZM96.6741 7.18454C95.9861 7.18454 95.4261 6.98454 94.9941 6.58455C94.5621 6.18454 94.3461 5.68854 94.3461 5.09654C94.3461 4.50454 94.5621 4.00854 94.9941 3.60854C95.4261 3.20854 95.9861 3.00854 96.6741 3.00854C97.3621 3.00854 97.9221 3.20054 98.3541 3.58455C98.7861 3.96854 99.0021 4.44854 99.0021 5.02455C99.0021 5.64854 98.7861 6.16854 98.3541 6.58455C97.9221 6.98454 97.3621 7.18454 96.6741 7.18454ZM114.669 15.4885C114.669 15.5365 114.645 15.8725 114.597 16.4965H104.829C105.005 17.2965 105.421 17.9285 106.077 18.3925C106.733 18.8565 107.549 19.0885 108.525 19.0885C109.197 19.0885 109.789 18.9925 110.301 18.8005C110.829 18.5925 111.317 18.2725 111.765 17.8405L113.757 20.0005C112.541 21.3925 110.765 22.0885 108.429 22.0885C106.973 22.0885 105.685 21.8085 104.565 21.2485C103.445 20.6725 102.581 19.8805 101.973 18.8725C101.365 17.8645 101.061 16.7205 101.061 15.4405C101.061 14.1765 101.357 13.0405 101.949 12.0325C102.557 11.0085 103.381 10.2165 104.421 9.65654C105.477 9.08054 106.653 8.79255 107.949 8.79255C109.213 8.79255 110.357 9.06455 111.381 9.60854C112.405 10.1525 113.205 10.9365 113.781 11.9605C114.373 12.9685 114.669 14.1445 114.669 15.4885ZM107.973 11.6245C107.125 11.6245 106.413 11.8645 105.837 12.3445C105.261 12.8245 104.909 13.4805 104.781 14.3125H111.141C111.013 13.4965 110.661 12.8485 110.085 12.3685C109.509 11.8725 108.805 11.6245 107.973 11.6245Z" fill="#9A428A"/>
<path d="M21.2001 22.069C21.8191 23.4812 23.5492 26.3134 27.7778 27.5862H18.519H9.25928C13.2209 26.3942 14.9894 23.8338 15.7069 22.3538" fill="#9A428A"/>
<path d="M18.761 22.2085L17.8158 22.354C17.5743 23.8341 16.9797 26.3943 15.6488 27.5862H9.25928C13.325 26.3943 15.139 23.8341 15.8753 22.354L18.761 22.2085Z" fill="#54306F"/>
<path d="M19.6759 22.1617L18.761 22.2085L19.6617 22.069C19.6658 22.0991 19.6709 22.13 19.6759 22.1617Z" fill="#DD8833"/>
<path d="M12.7314 12.0102C13.4916 9.49115 15.2696 7.72415 17.3424 7.72415C19.4495 7.72415 21.2531 9.5506 21.9907 12.1379" fill="#9A428A"/>
<path d="M17.3611 12.1379L12.7314 12.0731C13.4916 9.51711 15.2696 7.72415 17.3424 7.72415H17.3518C16.6351 7.7295 16.0212 9.52095 15.7582 12.0731L17.3611 12.1379Z" fill="#54306F"/>
<path fill-rule="evenodd" clip-rule="evenodd" d="M34.8762 11.4358C32.4112 13.8069 30.439 23.1724 16.5122 23.1724C9.45912 23.1724 7.33689 19.4328 6.96037 15.7411C6.77016 13.8763 8.31009 12.2656 10.2581 12.2656H12.0751C20.2098 12.2656 26.9879 13.5696 31.9181 8.82758H39.3519C39.3519 8.82758 37.3412 9.06471 34.8762 11.4358Z" fill="#9A428A"/>
<path fill-rule="evenodd" clip-rule="evenodd" d="M20.3761 20.1527C13.323 20.1527 11.2007 16.4131 10.8242 12.7214C10.8085 12.5674 10.8057 12.4154 10.8128 12.2656H10.2581C8.3101 12.2656 6.77016 13.8763 6.96037 15.7411C7.33689 19.4328 9.45905 23.1724 16.5122 23.1724C23.6792 23.1724 27.6799 20.6921 30.2114 17.9612C27.8255 19.2619 24.6694 20.1527 20.3761 20.1527Z" fill="#54306F"/>
<path d="M38.066 9.23077C38.8602 8.88604 39.3519 8.82758 39.3519 8.82758H38.3687C38.2683 8.95207 38.1677 9.08664 38.066 9.23077Z" fill="#DD8833"/>
<path d="M17.2149 7.72415L20.8333 1.98941H13.5966L17.2149 7.72415Z" fill="#9A428A"/>
<path fill-rule="evenodd" clip-rule="evenodd" d="M26.6204 13.6714C26.6204 14.2716 24.8067 15.4483 22.5695 15.4483C20.3322 15.4483 18.5186 14.2716 18.5186 13.6714C18.5186 13.0711 20.3322 13.2746 22.5695 13.2746C24.8067 13.2746 26.6204 13.0711 26.6204 13.6714Z" fill="#BD59AB"/>
<path d="M28.9352 0.719648C28.9352 0.32218 28.6762 0 28.3565 0C28.0368 0 27.7778 0.32218 27.7778 0.719648V2.5907C27.7778 2.98817 28.0368 3.31034 28.3565 3.31034C28.6762 3.31034 28.9352 2.98817 28.9352 2.5907V0.719648Z" fill="#4F3459"/>
<path d="M28.3565 4.41379C28.0368 4.41379 27.7778 4.73597 27.7778 5.13344V7.00448C27.7778 7.40195 28.0368 7.72413 28.3565 7.72413C28.6762 7.72413 28.9352 7.40195 28.9352 7.00448V5.13344C28.9352 4.73587 28.6762 4.41379 28.3565 4.41379Z" fill="#4F3459"/>
<path d="M29.69 3.31033C29.273 3.31033 28.9352 3.55733 28.9352 3.86206C28.9352 4.16678 29.273 4.41378 29.69 4.41378H31.6526C32.0696 4.41378 32.4074 4.16678 32.4074 3.86206C32.4074 3.55733 32.0696 3.31033 31.6526 3.31033H29.69Z" fill="#4F3459"/>
<path d="M25.0604 4.41378H27.0229C27.4399 4.41378 27.7778 4.16678 27.7778 3.86206C27.7778 3.55733 27.4399 3.31033 27.0229 3.31033H25.0604C24.6434 3.31033 24.3055 3.55733 24.3055 3.86206C24.3055 4.16678 24.6434 4.41378 25.0604 4.41378Z" fill="#4F3459"/>
<path d="M40.5081 8.59156C40.4888 8.2929 40.2258 8.06007 39.908 8.06007H32.5053C32.3458 8.06007 32.193 8.11966 32.0801 8.22587C30.3362 9.86748 28.2467 10.8347 25.5046 11.2696C22.9785 11.6701 20.1143 11.5851 17.0816 11.4952C15.6847 11.4537 14.2403 11.4108 12.7452 11.4108H10.9359C9.87047 11.4108 8.84833 11.8242 8.11315 12.547C7.83378 10.0228 7.13412 8.33423 5.99614 7.41858C5.15566 6.74237 4.09134 6.49421 2.83318 6.68085C1.4978 6.87912 0.520669 7.78591 0.152287 9.16886C-0.395379 11.2246 0.479526 14.3157 3.66852 16.5876C5.74462 18.0666 6.28944 19.8229 6.01307 20.5977C5.88862 20.9464 5.60173 21.116 5.13588 21.116C4.80373 21.116 4.53465 21.3694 4.53465 21.682C4.53465 21.9946 4.80373 22.248 5.13588 22.248C6.12542 22.248 6.86068 21.7779 7.15295 20.9581C7.41151 20.2333 7.28753 19.3103 6.80388 18.3592C6.30463 17.3772 5.47126 16.4525 4.39389 15.685C2.47595 14.3185 0.695444 11.7828 1.31843 9.44428C1.46275 8.90281 1.87559 7.96906 3.02022 7.79917C3.92819 7.66429 4.64573 7.82151 5.21476 8.27919C6.37165 9.20989 6.9864 11.4076 7.04543 14.8134C7.03047 15.0141 7.03237 15.2167 7.05342 15.4192C7.05342 15.4196 7.0535 15.42 7.05358 15.4203C7.05366 15.4214 7.05381 15.4224 7.05389 15.4235C7.42378 18.9596 9.47844 23.1724 17.1637 23.1724C21.5253 23.1724 25.2073 22.2645 28.1074 20.474C28.3851 20.3026 28.4626 19.9518 28.2804 19.6903C28.0983 19.4289 27.7258 19.356 27.4479 19.5275C24.709 21.2185 21.345 22.0405 17.1637 22.0405C11.7237 22.0405 8.72601 19.7828 8.25279 15.3305C8.25264 15.1626 8.25089 14.998 8.24828 14.8351C8.299 14.2975 8.53288 13.7925 8.93069 13.3793C9.44275 12.8476 10.1736 12.5427 10.9357 12.5427H12.745C14.2211 12.5427 15.656 12.5852 17.0435 12.6265C23.2288 12.8102 28.5828 12.9689 32.7508 9.19209H37.0601C36.44 9.57514 35.7495 10.0864 35.0256 10.7678C34.4498 11.3099 33.924 12.151 33.3151 13.1249C32.3496 14.6691 31.148 16.5912 29.1964 18.2539C28.9503 18.4637 28.9313 18.8215 29.1541 19.0533C29.377 19.2852 29.7571 19.3029 30.0034 19.0932C32.0912 17.3143 33.3445 15.3097 34.3514 13.699C34.9185 12.7919 35.4084 12.0084 35.8759 11.5683C37.6776 9.87224 39.3517 9.2694 39.981 9.188C40.2966 9.15143 40.5274 8.89015 40.5081 8.59156Z" fill="#4F3459"/>
<path d="M28.5136 27.6675C26.3519 27.0629 24.6268 25.996 23.386 24.4966C23.1908 24.2607 22.8095 24.205 22.5344 24.3726C22.2592 24.5401 22.1945 24.8672 22.3898 25.1031C23.2433 26.1347 24.2979 26.9835 25.5409 27.6417H12.6546C13.8981 26.9835 14.9527 26.1347 15.8062 25.1031C16.0015 24.8672 15.9368 24.5401 15.6617 24.3726C15.3866 24.2052 15.0053 24.2607 14.8101 24.4966C13.5693 25.9962 11.8436 27.0629 9.68085 27.6675C9.39534 27.7474 9.21979 27.9934 9.26689 28.2478C9.31399 28.5023 9.56985 28.6897 9.87015 28.6897H28.3243C28.6247 28.6897 28.8804 28.5024 28.9276 28.2479C28.9748 27.9934 28.7991 27.7474 28.5136 27.6675Z" fill="#4F3459"/>
<path d="M12.8106 10.0831C12.6455 10.3626 12.747 10.7179 13.0373 10.8769C13.3277 11.0357 13.6968 10.938 13.862 10.6586C14.7411 9.17067 16.0079 8.31723 17.3373 8.31723C18.6929 8.31723 19.9756 9.19801 20.8566 10.7337C20.9668 10.926 21.1735 11.0345 21.3865 11.0345C21.4853 11.0345 21.5857 11.0111 21.6782 10.9619C21.9706 10.8065 22.0767 10.4524 21.9153 10.1709C21.0174 8.60577 19.7409 7.58558 18.3184 7.26326L21.4894 1.97658C21.5975 1.7965 21.5975 1.5746 21.4894 1.39452C21.3813 1.21444 21.1818 1.10345 20.9657 1.10345H13.709C13.493 1.10345 13.2934 1.21444 13.1853 1.39452C13.0773 1.5746 13.0773 1.7965 13.1853 1.97658L16.3565 7.26349C14.9627 7.58053 13.705 8.56939 12.8106 10.0831ZM19.9183 2.26757L17.3373 6.5706L14.7563 2.26757H19.9183Z" fill="#4F3459"/>
</g>
<defs>
<clipPath id="clip0">
<rect width="125" height="32" fill="white"/>
</clipPath>
</defs>
</svg>
