<svg xmlns="http://www.w3.org/2000/svg" viewBox="0 0 730.09 730.09"><defs><style>.cls-1{opacity:0.47;}.cls-2{fill:none;stroke:#9a428a;stroke-miterlimit:10;stroke-width:16px;}</style></defs><g id="Layer_10" data-name="Layer 10"><path class="cls-2" d="M487.75,403.71c-6.58,25.58-34.66,56.18-63.13,70.38,14.53,2.63,23.58,6.32,23.58,10.42,0,8-34.22,14.42-76.43,14.42s-76.43-6.46-76.43-14.42c0-3.49,6.57-6.69,17.5-9.19A128.2,128.2,0,1,1,472.51,285.86"/><path class="cls-2" d="M206.71,437.87a51.53,51.53,0,0,1-51.53-51.53c0-28.47,25.76-47.18,51.53-51.54a549.71,549.71,0,0,1,107.59,0S474,357.55,574.91,318c0,0-62,13.39-84,75.52-1.15,3.25-2.26,6.9-3.18,10.42"/></g></svg>